<mxfile host="app.diagrams.net" modified="2022-04-18T17:17:31.177Z" agent="5.0 (Windows)" etag="2_FVxmFeEcfxxX2OTyNa" version="17.4.5" type="github">
  <diagram id="qTQyHa3P55nb8AETZ46H" name="Page-1">
    <mxGraphModel dx="1422" dy="752" grid="1" gridSize="10" guides="1" tooltips="1" connect="1" arrows="1" fold="1" page="1" pageScale="1" pageWidth="827" pageHeight="1169" math="0" shadow="0">
      <root>
        <mxCell id="0" />
        <mxCell id="1" parent="0" />
        <mxCell id="mDCQHi0GecgMQoZYUr2C-1" value="GeneralPreActivities" style="swimlane;fontStyle=0;childLayout=stackLayout;horizontal=1;startSize=26;fillColor=#d5e8d4;horizontalStack=0;resizeParent=1;resizeParentMax=0;resizeLast=0;collapsible=1;marginBottom=0;strokeColor=#82b366;" parent="1" vertex="1">
          <mxGeometry x="109" y="5" width="140" height="182" as="geometry" />
        </mxCell>
        <mxCell id="mDCQHi0GecgMQoZYUr2C-2" value="+ name: String" style="text;strokeColor=#82b366;fillColor=#d5e8d4;align=left;verticalAlign=top;spacingLeft=4;spacingRight=4;overflow=hidden;rotatable=0;points=[[0,0.5],[1,0.5]];portConstraint=eastwest;" parent="mDCQHi0GecgMQoZYUr2C-1" vertex="1">
          <mxGeometry y="26" width="140" height="26" as="geometry" />
        </mxCell>
        <mxCell id="mDCQHi0GecgMQoZYUr2C-7" value="+ hint: String {optional}" style="text;strokeColor=#82b366;fillColor=#d5e8d4;align=left;verticalAlign=top;spacingLeft=4;spacingRight=4;overflow=hidden;rotatable=0;points=[[0,0.5],[1,0.5]];portConstraint=eastwest;" parent="mDCQHi0GecgMQoZYUr2C-1" vertex="1">
          <mxGeometry y="52" width="140" height="26" as="geometry" />
        </mxCell>
        <mxCell id="mDCQHi0GecgMQoZYUr2C-6" value="+ time: Time" style="text;strokeColor=#82b366;fillColor=#d5e8d4;align=left;verticalAlign=top;spacingLeft=4;spacingRight=4;overflow=hidden;rotatable=0;points=[[0,0.5],[1,0.5]];portConstraint=eastwest;" parent="mDCQHi0GecgMQoZYUr2C-1" vertex="1">
          <mxGeometry y="78" width="140" height="26" as="geometry" />
        </mxCell>
        <mxCell id="ZCo5ydRf8gwsf1Bdayyy-8" value="+ description: String" style="text;strokeColor=#82b366;fillColor=#d5e8d4;align=left;verticalAlign=top;spacingLeft=4;spacingRight=4;overflow=hidden;rotatable=0;points=[[0,0.5],[1,0.5]];portConstraint=eastwest;" parent="mDCQHi0GecgMQoZYUr2C-1" vertex="1">
          <mxGeometry y="104" width="140" height="26" as="geometry" />
        </mxCell>
        <mxCell id="ZCo5ydRf8gwsf1Bdayyy-10" value="+ execution: String" style="text;strokeColor=#82b366;fillColor=#d5e8d4;align=left;verticalAlign=top;spacingLeft=4;spacingRight=4;overflow=hidden;rotatable=0;points=[[0,0.5],[1,0.5]];portConstraint=eastwest;" parent="mDCQHi0GecgMQoZYUr2C-1" vertex="1">
          <mxGeometry y="130" width="140" height="26" as="geometry" />
        </mxCell>
        <mxCell id="sI85q3GADDqdwYuJvBa--3" value="+ role: String {optional}" style="text;strokeColor=#82b366;fillColor=#d5e8d4;align=left;verticalAlign=top;spacingLeft=4;spacingRight=4;overflow=hidden;rotatable=0;points=[[0,0.5],[1,0.5]];portConstraint=eastwest;" vertex="1" parent="mDCQHi0GecgMQoZYUr2C-1">
          <mxGeometry y="156" width="140" height="26" as="geometry" />
        </mxCell>
        <mxCell id="sI85q3GADDqdwYuJvBa--25" style="edgeStyle=orthogonalEdgeStyle;rounded=0;orthogonalLoop=1;jettySize=auto;html=1;exitX=1;exitY=0.5;exitDx=0;exitDy=0;endArrow=open;endFill=0;endSize=12;" edge="1" parent="1" source="sI85q3GADDqdwYuJvBa--2" target="sI85q3GADDqdwYuJvBa--5">
          <mxGeometry relative="1" as="geometry" />
        </mxCell>
        <mxCell id="mDCQHi0GecgMQoZYUr2C-8" value="GeneralPostActivities" style="swimlane;fontStyle=0;childLayout=stackLayout;horizontal=1;startSize=26;fillColor=#d5e8d4;horizontalStack=0;resizeParent=1;resizeParentMax=0;resizeLast=0;collapsible=1;marginBottom=0;strokeColor=#82b366;" parent="1" vertex="1">
          <mxGeometry x="510" y="5" width="140" height="182" as="geometry" />
        </mxCell>
        <mxCell id="mDCQHi0GecgMQoZYUr2C-9" value="+ name: String" style="text;strokeColor=#82b366;fillColor=#d5e8d4;align=left;verticalAlign=top;spacingLeft=4;spacingRight=4;overflow=hidden;rotatable=0;points=[[0,0.5],[1,0.5]];portConstraint=eastwest;" parent="mDCQHi0GecgMQoZYUr2C-8" vertex="1">
          <mxGeometry y="26" width="140" height="26" as="geometry" />
        </mxCell>
        <object label="+ hint: String {optional}" dfads="" id="mDCQHi0GecgMQoZYUr2C-11">
          <mxCell style="text;strokeColor=#82b366;fillColor=#d5e8d4;align=left;verticalAlign=top;spacingLeft=4;spacingRight=4;overflow=hidden;rotatable=0;points=[[0,0.5],[1,0.5]];portConstraint=eastwest;" parent="mDCQHi0GecgMQoZYUr2C-8" vertex="1">
            <mxGeometry y="52" width="140" height="26" as="geometry" />
          </mxCell>
        </object>
        <mxCell id="mDCQHi0GecgMQoZYUr2C-12" value="+ time: Time" style="text;strokeColor=#82b366;fillColor=#d5e8d4;align=left;verticalAlign=top;spacingLeft=4;spacingRight=4;overflow=hidden;rotatable=0;points=[[0,0.5],[1,0.5]];portConstraint=eastwest;" parent="mDCQHi0GecgMQoZYUr2C-8" vertex="1">
          <mxGeometry y="78" width="140" height="26" as="geometry" />
        </mxCell>
        <mxCell id="ZCo5ydRf8gwsf1Bdayyy-7" value="+ description: String" style="text;strokeColor=#82b366;fillColor=#d5e8d4;align=left;verticalAlign=top;spacingLeft=4;spacingRight=4;overflow=hidden;rotatable=0;points=[[0,0.5],[1,0.5]];portConstraint=eastwest;" parent="mDCQHi0GecgMQoZYUr2C-8" vertex="1">
          <mxGeometry y="104" width="140" height="26" as="geometry" />
        </mxCell>
        <mxCell id="ZCo5ydRf8gwsf1Bdayyy-11" value="+ execution: String" style="text;strokeColor=#82b366;fillColor=#d5e8d4;align=left;verticalAlign=top;spacingLeft=4;spacingRight=4;overflow=hidden;rotatable=0;points=[[0,0.5],[1,0.5]];portConstraint=eastwest;" parent="mDCQHi0GecgMQoZYUr2C-8" vertex="1">
          <mxGeometry y="130" width="140" height="26" as="geometry" />
        </mxCell>
        <mxCell id="sI85q3GADDqdwYuJvBa--2" value="+ role: String {optional}" style="text;strokeColor=#82b366;fillColor=#d5e8d4;align=left;verticalAlign=top;spacingLeft=4;spacingRight=4;overflow=hidden;rotatable=0;points=[[0,0.5],[1,0.5]];portConstraint=eastwest;" vertex="1" parent="mDCQHi0GecgMQoZYUr2C-8">
          <mxGeometry y="156" width="140" height="26" as="geometry" />
        </mxCell>
        <mxCell id="mDCQHi0GecgMQoZYUr2C-13" value="Environment" style="swimlane;fontStyle=0;childLayout=stackLayout;horizontal=1;startSize=27;fillColor=#dae8fc;horizontalStack=0;resizeParent=1;resizeParentMax=0;resizeLast=0;collapsible=1;marginBottom=0;strokeColor=#6c8ebf;" parent="1" vertex="1">
          <mxGeometry x="300" y="215" width="140" height="27" as="geometry">
            <mxRectangle x="310" y="153" width="100" height="26" as="alternateBounds" />
          </mxGeometry>
        </mxCell>
        <mxCell id="mDCQHi0GecgMQoZYUr2C-18" value="Component" style="swimlane;fontStyle=0;childLayout=stackLayout;horizontal=1;startSize=26;fillColor=#dae8fc;horizontalStack=0;resizeParent=1;resizeParentMax=0;resizeLast=0;collapsible=1;marginBottom=0;strokeColor=#6c8ebf;" parent="1" vertex="1">
          <mxGeometry x="300" y="589" width="140" height="104" as="geometry" />
        </mxCell>
        <mxCell id="mDCQHi0GecgMQoZYUr2C-19" value="+ name: String" style="text;strokeColor=#6c8ebf;fillColor=#dae8fc;align=left;verticalAlign=top;spacingLeft=4;spacingRight=4;overflow=hidden;rotatable=0;points=[[0,0.5],[1,0.5]];portConstraint=eastwest;" parent="mDCQHi0GecgMQoZYUr2C-18" vertex="1">
          <mxGeometry y="26" width="140" height="26" as="geometry" />
        </mxCell>
        <mxCell id="mDCQHi0GecgMQoZYUr2C-21" value="+ version: String" style="text;strokeColor=#6c8ebf;fillColor=#dae8fc;align=left;verticalAlign=top;spacingLeft=4;spacingRight=4;overflow=hidden;rotatable=0;points=[[0,0.5],[1,0.5]];portConstraint=eastwest;" parent="mDCQHi0GecgMQoZYUr2C-18" vertex="1">
          <mxGeometry y="52" width="140" height="26" as="geometry" />
        </mxCell>
        <mxCell id="mDCQHi0GecgMQoZYUr2C-22" value="+ tags: List" style="text;strokeColor=#6c8ebf;fillColor=#dae8fc;align=left;verticalAlign=top;spacingLeft=4;spacingRight=4;overflow=hidden;rotatable=0;points=[[0,0.5],[1,0.5]];portConstraint=eastwest;" parent="mDCQHi0GecgMQoZYUr2C-18" vertex="1">
          <mxGeometry y="78" width="140" height="26" as="geometry" />
        </mxCell>
        <mxCell id="mDCQHi0GecgMQoZYUr2C-23" value="ComponentType" style="swimlane;fontStyle=0;childLayout=stackLayout;horizontal=1;startSize=26;fillColor=#d5e8d4;horizontalStack=0;resizeParent=1;resizeParentMax=0;resizeLast=0;collapsible=1;marginBottom=0;strokeColor=#82b366;" parent="1" vertex="1">
          <mxGeometry x="109" y="386" width="140" height="20" as="geometry" />
        </mxCell>
        <mxCell id="mDCQHi0GecgMQoZYUr2C-28" value="ComponentActivities" style="swimlane;fontStyle=0;childLayout=stackLayout;horizontal=1;startSize=26;fillColor=#d5e8d4;horizontalStack=0;resizeParent=1;resizeParentMax=0;resizeLast=0;collapsible=1;marginBottom=0;strokeColor=#82b366;" parent="1" vertex="1">
          <mxGeometry x="300" y="348" width="140" height="208" as="geometry">
            <mxRectangle x="253" y="220" width="140" height="26" as="alternateBounds" />
          </mxGeometry>
        </mxCell>
        <mxCell id="mDCQHi0GecgMQoZYUr2C-29" value="+ name: String" style="text;strokeColor=#82b366;fillColor=#d5e8d4;align=left;verticalAlign=top;spacingLeft=4;spacingRight=4;overflow=hidden;rotatable=0;points=[[0,0.5],[1,0.5]];portConstraint=eastwest;" parent="mDCQHi0GecgMQoZYUr2C-28" vertex="1">
          <mxGeometry y="26" width="140" height="26" as="geometry" />
        </mxCell>
        <mxCell id="mDCQHi0GecgMQoZYUr2C-30" value="+ envs: List" style="text;strokeColor=#82b366;fillColor=#d5e8d4;align=left;verticalAlign=top;spacingLeft=4;spacingRight=4;overflow=hidden;rotatable=0;points=[[0,0.5],[1,0.5]];portConstraint=eastwest;" parent="mDCQHi0GecgMQoZYUr2C-28" vertex="1">
          <mxGeometry y="52" width="140" height="26" as="geometry" />
        </mxCell>
        <mxCell id="mDCQHi0GecgMQoZYUr2C-31" value="+ hint: String {optional}" style="text;strokeColor=#82b366;fillColor=#d5e8d4;align=left;verticalAlign=top;spacingLeft=4;spacingRight=4;overflow=hidden;rotatable=0;points=[[0,0.5],[1,0.5]];portConstraint=eastwest;" parent="mDCQHi0GecgMQoZYUr2C-28" vertex="1">
          <mxGeometry y="78" width="140" height="26" as="geometry" />
        </mxCell>
        <mxCell id="mDCQHi0GecgMQoZYUr2C-32" value="+ time: Time" style="text;strokeColor=#82b366;fillColor=#d5e8d4;align=left;verticalAlign=top;spacingLeft=4;spacingRight=4;overflow=hidden;rotatable=0;points=[[0,0.5],[1,0.5]];portConstraint=eastwest;" parent="mDCQHi0GecgMQoZYUr2C-28" vertex="1">
          <mxGeometry y="104" width="140" height="26" as="geometry" />
        </mxCell>
        <mxCell id="ZCo5ydRf8gwsf1Bdayyy-9" value="+ description: String" style="text;strokeColor=#82b366;fillColor=#d5e8d4;align=left;verticalAlign=top;spacingLeft=4;spacingRight=4;overflow=hidden;rotatable=0;points=[[0,0.5],[1,0.5]];portConstraint=eastwest;" parent="mDCQHi0GecgMQoZYUr2C-28" vertex="1">
          <mxGeometry y="130" width="140" height="26" as="geometry" />
        </mxCell>
        <mxCell id="ZCo5ydRf8gwsf1Bdayyy-12" value="+ execution: String" style="text;strokeColor=#82b366;fillColor=#d5e8d4;align=left;verticalAlign=top;spacingLeft=4;spacingRight=4;overflow=hidden;rotatable=0;points=[[0,0.5],[1,0.5]];portConstraint=eastwest;" parent="mDCQHi0GecgMQoZYUr2C-28" vertex="1">
          <mxGeometry y="156" width="140" height="26" as="geometry" />
        </mxCell>
        <mxCell id="sI85q3GADDqdwYuJvBa--1" value="+ role: String {optional}" style="text;strokeColor=#82b366;fillColor=#d5e8d4;align=left;verticalAlign=top;spacingLeft=4;spacingRight=4;overflow=hidden;rotatable=0;points=[[0,0.5],[1,0.5]];portConstraint=eastwest;" vertex="1" parent="mDCQHi0GecgMQoZYUr2C-28">
          <mxGeometry y="182" width="140" height="26" as="geometry" />
        </mxCell>
        <mxCell id="mDCQHi0GecgMQoZYUr2C-34" value="Tag" style="swimlane;fontStyle=0;childLayout=stackLayout;horizontal=1;startSize=26;fillColor=#d5e8d4;horizontalStack=0;resizeParent=1;resizeParentMax=0;resizeLast=0;collapsible=1;marginBottom=0;strokeColor=#82b366;" parent="1" vertex="1">
          <mxGeometry x="469" y="485" width="140" height="20" as="geometry" />
        </mxCell>
        <mxCell id="mDCQHi0GecgMQoZYUr2C-35" value="1" style="endArrow=open;html=1;endSize=12;startArrow=diamondThin;startSize=14;startFill=1;edgeStyle=orthogonalEdgeStyle;align=left;verticalAlign=bottom;rounded=0;exitX=1;exitY=0.5;exitDx=0;exitDy=0;entryX=-0.021;entryY=0.846;entryDx=0;entryDy=0;entryPerimeter=0;" parent="1" source="mDCQHi0GecgMQoZYUr2C-23" target="mDCQHi0GecgMQoZYUr2C-29" edge="1">
          <mxGeometry x="-1" y="3" relative="1" as="geometry">
            <mxPoint x="40" y="610" as="sourcePoint" />
            <mxPoint x="200" y="610" as="targetPoint" />
          </mxGeometry>
        </mxCell>
        <mxCell id="mDCQHi0GecgMQoZYUr2C-36" value="1..*" style="edgeLabel;html=1;align=center;verticalAlign=middle;resizable=0;points=[];" parent="mDCQHi0GecgMQoZYUr2C-35" vertex="1" connectable="0">
          <mxGeometry x="0.7157" y="1" relative="1" as="geometry">
            <mxPoint x="-10" y="-9" as="offset" />
          </mxGeometry>
        </mxCell>
        <mxCell id="mDCQHi0GecgMQoZYUr2C-39" value="1" style="endArrow=open;html=1;endSize=12;startArrow=diamondThin;startSize=14;startFill=0;edgeStyle=orthogonalEdgeStyle;align=left;verticalAlign=bottom;rounded=0;entryX=0.5;entryY=1;entryDx=0;entryDy=0;" parent="1" target="mDCQHi0GecgMQoZYUr2C-34" edge="1" source="mDCQHi0GecgMQoZYUr2C-18">
          <mxGeometry x="-1" y="3" relative="1" as="geometry">
            <mxPoint x="440" y="570" as="sourcePoint" />
            <mxPoint x="690" y="650" as="targetPoint" />
            <Array as="points">
              <mxPoint x="539" y="609" />
            </Array>
          </mxGeometry>
        </mxCell>
        <mxCell id="mDCQHi0GecgMQoZYUr2C-40" value="1" style="endArrow=open;html=1;endSize=12;startArrow=diamondThin;startSize=14;startFill=0;edgeStyle=orthogonalEdgeStyle;align=left;verticalAlign=bottom;rounded=0;entryX=0.5;entryY=0;entryDx=0;entryDy=0;exitX=1;exitY=0.5;exitDx=0;exitDy=0;" parent="1" source="mDCQHi0GecgMQoZYUr2C-31" target="mDCQHi0GecgMQoZYUr2C-34" edge="1">
          <mxGeometry x="-1" y="3" relative="1" as="geometry">
            <mxPoint x="454.05999999999995" y="634.0060000000001" as="sourcePoint" />
            <mxPoint x="610" y="562" as="targetPoint" />
          </mxGeometry>
        </mxCell>
        <mxCell id="mDCQHi0GecgMQoZYUr2C-41" value="1..*" style="edgeLabel;html=1;align=center;verticalAlign=middle;resizable=0;points=[];" parent="mDCQHi0GecgMQoZYUr2C-40" vertex="1" connectable="0">
          <mxGeometry x="0.8704" y="-2" relative="1" as="geometry">
            <mxPoint x="22" y="-4" as="offset" />
          </mxGeometry>
        </mxCell>
        <mxCell id="mDCQHi0GecgMQoZYUr2C-42" value="1..*" style="edgeLabel;html=1;align=center;verticalAlign=middle;resizable=0;points=[];" parent="1" vertex="1" connectable="0">
          <mxGeometry x="539" y="445" as="geometry">
            <mxPoint x="-27" y="71" as="offset" />
          </mxGeometry>
        </mxCell>
        <mxCell id="mDCQHi0GecgMQoZYUr2C-43" value="1" style="endArrow=open;html=1;endSize=12;startArrow=diamondThin;startSize=14;startFill=0;edgeStyle=orthogonalEdgeStyle;align=left;verticalAlign=bottom;rounded=0;entryX=1;entryY=0.5;entryDx=0;entryDy=0;" parent="1" target="mDCQHi0GecgMQoZYUr2C-13" edge="1">
          <mxGeometry x="-1" y="3" relative="1" as="geometry">
            <mxPoint x="440" y="390" as="sourcePoint" />
            <mxPoint x="650" y="400" as="targetPoint" />
            <Array as="points">
              <mxPoint x="480" y="390" />
              <mxPoint x="480" y="229" />
            </Array>
          </mxGeometry>
        </mxCell>
        <mxCell id="mDCQHi0GecgMQoZYUr2C-44" value="1" style="endArrow=open;html=1;endSize=12;startArrow=diamondThin;startSize=14;startFill=0;edgeStyle=orthogonalEdgeStyle;align=left;verticalAlign=bottom;rounded=0;exitX=1;exitY=0.5;exitDx=0;exitDy=0;entryX=0.25;entryY=0;entryDx=0;entryDy=0;" parent="1" source="mDCQHi0GecgMQoZYUr2C-1" target="mDCQHi0GecgMQoZYUr2C-13" edge="1">
          <mxGeometry x="-1" y="3" relative="1" as="geometry">
            <mxPoint x="190" y="131" as="sourcePoint" />
            <mxPoint x="348.02" y="199.48699999999997" as="targetPoint" />
          </mxGeometry>
        </mxCell>
        <mxCell id="mDCQHi0GecgMQoZYUr2C-46" value="1" style="endArrow=open;html=1;endSize=12;startArrow=diamondThin;startSize=14;startFill=0;edgeStyle=orthogonalEdgeStyle;align=left;verticalAlign=bottom;rounded=0;exitX=0;exitY=0.077;exitDx=0;exitDy=0;exitPerimeter=0;entryX=0.5;entryY=1;entryDx=0;entryDy=0;" parent="1" source="mDCQHi0GecgMQoZYUr2C-19" target="mDCQHi0GecgMQoZYUr2C-23" edge="1">
          <mxGeometry x="-0.9209" y="-8" relative="1" as="geometry">
            <mxPoint x="20" y="620" as="sourcePoint" />
            <mxPoint x="180" y="620" as="targetPoint" />
            <mxPoint as="offset" />
          </mxGeometry>
        </mxCell>
        <mxCell id="mDCQHi0GecgMQoZYUr2C-47" value="1" style="edgeLabel;html=1;align=center;verticalAlign=middle;resizable=0;points=[];" parent="mDCQHi0GecgMQoZYUr2C-46" vertex="1" connectable="0">
          <mxGeometry x="0.9215" relative="1" as="geometry">
            <mxPoint x="-20" y="2" as="offset" />
          </mxGeometry>
        </mxCell>
        <mxCell id="mDCQHi0GecgMQoZYUr2C-48" value="1..*" style="edgeLabel;html=1;align=center;verticalAlign=middle;resizable=0;points=[];" parent="1" vertex="1" connectable="0">
          <mxGeometry x="309.99993545900566" y="334.9972929443966" as="geometry">
            <mxPoint x="14" y="-138" as="offset" />
          </mxGeometry>
        </mxCell>
        <mxCell id="mDCQHi0GecgMQoZYUr2C-49" value="1..*" style="edgeLabel;html=1;align=center;verticalAlign=middle;resizable=0;points=[];" parent="1" vertex="1" connectable="0">
          <mxGeometry x="419.99993545900566" y="334.9972929443966" as="geometry">
            <mxPoint x="14" y="-138" as="offset" />
          </mxGeometry>
        </mxCell>
        <mxCell id="mDCQHi0GecgMQoZYUr2C-50" value="0..*" style="edgeLabel;html=1;align=center;verticalAlign=middle;resizable=0;points=[];" parent="1" vertex="1" connectable="0">
          <mxGeometry x="269.99993545900566" y="395.9972929443966" as="geometry">
            <mxPoint x="14" y="-138" as="offset" />
          </mxGeometry>
        </mxCell>
        <mxCell id="mDCQHi0GecgMQoZYUr2C-52" value="1" style="endArrow=open;html=1;endSize=12;startArrow=diamondThin;startSize=14;startFill=0;edgeStyle=orthogonalEdgeStyle;align=left;verticalAlign=bottom;rounded=0;exitX=0;exitY=0.5;exitDx=0;exitDy=0;entryX=0.821;entryY=0;entryDx=0;entryDy=0;entryPerimeter=0;" parent="1" source="mDCQHi0GecgMQoZYUr2C-12" target="mDCQHi0GecgMQoZYUr2C-13" edge="1">
          <mxGeometry x="-0.8788" y="-9" relative="1" as="geometry">
            <mxPoint x="480" y="121" as="sourcePoint" />
            <mxPoint x="418.02" y="200" as="targetPoint" />
            <mxPoint as="offset" />
          </mxGeometry>
        </mxCell>
        <mxCell id="mDCQHi0GecgMQoZYUr2C-54" value="Release" style="swimlane;fontStyle=0;childLayout=stackLayout;horizontal=1;startSize=26;fillColor=#f8cecc;horizontalStack=0;resizeParent=1;resizeParentMax=0;resizeLast=0;collapsible=1;marginBottom=0;strokeColor=#b85450;" parent="1" vertex="1">
          <mxGeometry x="109" y="216" width="140" height="27" as="geometry">
            <mxRectangle x="310" y="153" width="100" height="26" as="alternateBounds" />
          </mxGeometry>
        </mxCell>
        <mxCell id="mDCQHi0GecgMQoZYUr2C-55" value="1" style="endArrow=open;html=1;endSize=12;startArrow=diamondThin;startSize=14;startFill=0;edgeStyle=orthogonalEdgeStyle;align=left;verticalAlign=bottom;rounded=0;" parent="1" source="mDCQHi0GecgMQoZYUr2C-54" edge="1">
          <mxGeometry x="-1" y="3" relative="1" as="geometry">
            <mxPoint x="249" y="213.5" as="sourcePoint" />
            <mxPoint x="300" y="230" as="targetPoint" />
          </mxGeometry>
        </mxCell>
        <mxCell id="mDCQHi0GecgMQoZYUr2C-57" value="1" style="endArrow=open;html=1;endSize=12;startArrow=diamondThin;startSize=14;startFill=0;edgeStyle=orthogonalEdgeStyle;align=left;verticalAlign=bottom;rounded=0;exitX=0;exitY=0.5;exitDx=0;exitDy=0;entryX=-0.014;entryY=0.885;entryDx=0;entryDy=0;entryPerimeter=0;" parent="1" source="mDCQHi0GecgMQoZYUr2C-54" target="mDCQHi0GecgMQoZYUr2C-21" edge="1">
          <mxGeometry x="-0.9294" y="-3" relative="1" as="geometry">
            <mxPoint x="210" y="570" as="sourcePoint" />
            <mxPoint x="50" y="570" as="targetPoint" />
            <Array as="points">
              <mxPoint x="80" y="229" />
              <mxPoint x="80" y="664" />
            </Array>
            <mxPoint as="offset" />
          </mxGeometry>
        </mxCell>
        <mxCell id="mDCQHi0GecgMQoZYUr2C-58" value="1..*" style="edgeLabel;html=1;align=center;verticalAlign=middle;resizable=0;points=[];" parent="1" vertex="1" connectable="0">
          <mxGeometry x="269.99993545900566" y="347.9972929443966" as="geometry">
            <mxPoint x="14" y="-138" as="offset" />
          </mxGeometry>
        </mxCell>
        <mxCell id="sI85q3GADDqdwYuJvBa--4" value="ActivityRole" style="swimlane;fontStyle=0;childLayout=stackLayout;horizontal=1;startSize=26;fillColor=#dae8fc;horizontalStack=0;resizeParent=1;resizeParentMax=0;resizeLast=0;collapsible=1;marginBottom=0;strokeColor=#6c8ebf;" vertex="1" parent="1">
          <mxGeometry x="300" y="257" width="140" height="78" as="geometry" />
        </mxCell>
        <mxCell id="sI85q3GADDqdwYuJvBa--5" value="+ roleName: String" style="text;strokeColor=#6c8ebf;fillColor=#dae8fc;align=left;verticalAlign=top;spacingLeft=4;spacingRight=4;overflow=hidden;rotatable=0;points=[[0,0.5],[1,0.5]];portConstraint=eastwest;" vertex="1" parent="sI85q3GADDqdwYuJvBa--4">
          <mxGeometry y="26" width="140" height="26" as="geometry" />
        </mxCell>
        <mxCell id="sI85q3GADDqdwYuJvBa--6" value="+ employee: String" style="text;strokeColor=#6c8ebf;fillColor=#dae8fc;align=left;verticalAlign=top;spacingLeft=4;spacingRight=4;overflow=hidden;rotatable=0;points=[[0,0.5],[1,0.5]];portConstraint=eastwest;" vertex="1" parent="sI85q3GADDqdwYuJvBa--4">
          <mxGeometry y="52" width="140" height="26" as="geometry" />
        </mxCell>
        <mxCell id="sI85q3GADDqdwYuJvBa--21" value="1" style="endArrow=open;html=1;endSize=12;startArrow=diamondThin;startSize=14;startFill=0;edgeStyle=orthogonalEdgeStyle;align=left;verticalAlign=bottom;rounded=0;exitX=0.5;exitY=1;exitDx=0;exitDy=0;entryX=0.007;entryY=0.179;entryDx=0;entryDy=0;entryPerimeter=0;" edge="1" parent="1" source="mDCQHi0GecgMQoZYUr2C-54" target="sI85q3GADDqdwYuJvBa--4">
          <mxGeometry x="-0.8328" y="11" relative="1" as="geometry">
            <mxPoint x="100" y="315" as="sourcePoint" />
            <mxPoint x="260" y="315" as="targetPoint" />
            <mxPoint as="offset" />
          </mxGeometry>
        </mxCell>
        <mxCell id="sI85q3GADDqdwYuJvBa--22" value="1..*" style="edgeLabel;html=1;align=center;verticalAlign=middle;resizable=0;points=[];" vertex="1" connectable="0" parent="1">
          <mxGeometry x="449.99993545900566" y="374.9972929443966" as="geometry">
            <mxPoint x="14" y="-138" as="offset" />
          </mxGeometry>
        </mxCell>
        <mxCell id="sI85q3GADDqdwYuJvBa--26" style="edgeStyle=orthogonalEdgeStyle;rounded=0;orthogonalLoop=1;jettySize=auto;html=1;exitX=0;exitY=0.5;exitDx=0;exitDy=0;endArrow=open;endFill=0;endSize=12;entryX=0;entryY=0.5;entryDx=0;entryDy=0;" edge="1" parent="1" source="sI85q3GADDqdwYuJvBa--3" target="sI85q3GADDqdwYuJvBa--4">
          <mxGeometry relative="1" as="geometry">
            <mxPoint x="660" y="173" as="sourcePoint" />
            <mxPoint x="450" y="306" as="targetPoint" />
            <Array as="points">
              <mxPoint x="40" y="174" />
              <mxPoint x="40" y="296" />
            </Array>
          </mxGeometry>
        </mxCell>
        <mxCell id="sI85q3GADDqdwYuJvBa--27" style="edgeStyle=orthogonalEdgeStyle;rounded=0;orthogonalLoop=1;jettySize=auto;html=1;exitX=1;exitY=0.5;exitDx=0;exitDy=0;endArrow=open;endFill=0;endSize=12;entryX=1;entryY=0.5;entryDx=0;entryDy=0;" edge="1" parent="1" source="sI85q3GADDqdwYuJvBa--1" target="sI85q3GADDqdwYuJvBa--4">
          <mxGeometry relative="1" as="geometry">
            <mxPoint x="660" y="184" as="sourcePoint" />
            <mxPoint x="450" y="306" as="targetPoint" />
            <Array as="points">
              <mxPoint x="670" y="543" />
              <mxPoint x="670" y="296" />
            </Array>
          </mxGeometry>
        </mxCell>
      </root>
    </mxGraphModel>
  </diagram>
</mxfile>
